<svg xmlns="http://www.w3.org/2000/svg" xmlns:xlink="http://www.w3.org/1999/xlink" width="38" height="33" viewBox="0 0 38 33"><defs><path id="9qy4a" d="M474 767.5c0-.85.68-1.5 1.52-1.5.83 0 1.51.69 1.51 1.5 0 .85-.68 1.5-1.51 1.5-.84 0-1.52-.69-1.52-1.5zm13.97 0c0-.85.68-1.5 1.51-1.5.84 0 1.52.69 1.52 1.5 0 .85-.68 1.5-1.52 1.5-.83 0-1.51-.69-1.51-1.5z"/><path id="9qy4b" d="M478 770.77c0 1.36 1.8 3.23 4 3.23s4-1.87 4-3.23c0-1.36-1.8-1.77-4-1.77s-4 .4-4 1.77z"/><path id="9qy4c" d="M464.97 767.5c0-1.42.19-2.85.58-4.23a6.78 6.78 0 0 1-2.55-5.3c0-3.85 3.2-6.97 7.14-6.97 1.66 0 3.28.58 4.55 1.58a17.93 17.93 0 0 1 14.62 0c1.27-1 2.9-1.58 4.55-1.58a7.05 7.05 0 0 1 7.14 6.96c0 2.08-.93 4-2.55 5.3.39 1.4.58 2.82.58 4.24 0 9.12-7.64 16.5-17.01 16.5-9.38 0-17.05-7.42-17.05-16.5zm.46-9.54a4.5 4.5 0 0 0 2.16 3.8c.46.32.7.9.5 1.43-.46 1.39-.7 2.85-.7 4.35.05 7.73 6.57 14.04 14.63 14.04s14.58-6.31 14.58-14.08c0-1.46-.23-2.92-.7-4.35-.19-.53.05-1.11.5-1.42a4.5 4.5 0 0 0 2.17-3.8 4.6 4.6 0 0 0-4.7-4.5c-1.32 0-2.6.53-3.48 1.45-.38.39-.96.5-1.47.24a15.25 15.25 0 0 0-13.88 0c-.5.26-1.08.15-1.47-.24a4.66 4.66 0 0 0-3.43-1.42 4.63 4.63 0 0 0-4.71 4.5z"/></defs><g><g transform="translate(-463 -751)"><g><use fill="#00ccad" xlink:href="#9qy4a"/></g><g><use fill="#00ccad" xlink:href="#9qy4b"/></g><g><use fill="#00ccad" xlink:href="#9qy4c"/></g></g></g></svg>