<svg xmlns="http://www.w3.org/2000/svg" xmlns:xlink="http://www.w3.org/1999/xlink" width="65" height="33" viewBox="0 0 65 33"><defs><path id="hvvaa" d="M1098.15 759.36c-1.04 0-1.94.85-1.94 2 0 1.14.83 1.99 1.94 1.99 1.1 0 1.94-.85 1.94-2 0-1.14-.9-1.99-1.94-1.99z"/><path id="hvvab" d="M1151.88 759.36c-1.04 0-1.94.85-1.94 2 0 1.14.83 1.99 1.94 1.99 1.1 0 1.94-.85 1.94-2 0-1.14-.9-1.99-1.94-1.99z"/><path id="hvvac" d="M1158 761.17v.27a4.7 4.7 0 0 1-4.6 4.73h-.08v16.05h3.72c.52 0 .87.36.87.9 0 .53-.35.88-.87.88h-61.62c-.52 0-.86-.35-.86-.89 0-.53.34-.89.86-.89h3.47v-16.05h-1.13a4.7 4.7 0 0 1-4.59-4.73v-.27c0-2.23 1.56-4.1 3.55-4.55a3.77 3.77 0 0 1-.43-1.7v-.17c0-1.78 1.39-3.3 3.2-3.3h11.62c1.73 0 3.2 1.43 3.2 3.3v.18a3 3 0 0 1-.34 1.51h39.35c2.51 0 4.59 2.15 4.68 4.73zm-59.98-6.24c0 .8.61 1.51 1.48 1.51h11.61c.78 0 1.47-.62 1.47-1.51v-.18c0-.8-.6-1.52-1.47-1.52h-11.61c-.78 0-1.48.63-1.48 1.52zm53.56 27.29v-16.05h-50.96v16.05zm4.6-20.7v-.26c0-1.6-1.3-2.94-2.86-2.94h-55.56a2.93 2.93 0 0 0-2.86 2.94v.27c0 1.6 1.3 2.94 2.86 2.94h55.56a2.93 2.93 0 0 0 2.86-2.94z"/><clipPath id="hvvad"><use fill="#fff" xlink:href="#hvvaa"/></clipPath><clipPath id="hvvae"><use fill="#fff" xlink:href="#hvvab"/></clipPath></defs><g><g transform="translate(-1093 -751)"><g><use fill="#00ccad" xlink:href="#hvvac"/><use fill="#fff" fill-opacity="0" stroke="#00ccad" stroke-miterlimit="50" stroke-width=".7" xlink:href="#hvvac"/></g><g><use fill="#00ccad" xlink:href="#hvvaa"/><use fill="#fff" fill-opacity="0" stroke="#00ccad" stroke-miterlimit="50" stroke-width="2" clip-path="url(&quot;#hvvad&quot;)" xlink:href="#hvvaa"/></g><g><use fill="#00ccad" xlink:href="#hvvab"/><use fill="#fff" fill-opacity="0" stroke="#00ccad" stroke-miterlimit="50" stroke-width="2" clip-path="url(&quot;#hvvae&quot;)" xlink:href="#hvvab"/></g></g></g></svg>