<svg xmlns="http://www.w3.org/2000/svg" xmlns:xlink="http://www.w3.org/1999/xlink" width="53" height="38" viewBox="0 0 53 38"><defs><path id="im2ta" d="M694 757.74v6.8c0 .74-.6 1.31-1.32 1.31h-4.18v4.14c0 .73-.6 1.3-1.32 1.3h-6.88a1.3 1.3 0 0 1-1.32-1.3v-4.14h-4.19a1.3 1.3 0 0 1-1.32-1.3v-6.8c0-.72.59-1.31 1.32-1.31h4.19v-4.14c0-.71.58-1.3 1.32-1.3h6.88c.73 0 1.32.59 1.32 1.3v4.14h4.18c.73 0 1.32.59 1.32 1.3zm-2.65 1.32h-4.17c-.72 0-1.33-.59-1.33-1.32v-4.12h-4.24v4.12c0 .73-.59 1.32-1.31 1.32h-4.2v4.18h4.2c.72 0 1.31.6 1.31 1.3v4.15h4.24v-4.14c0-.72.6-1.3 1.33-1.3h4.17zm-5.23 18.26c.32.25.52.62.52 1.03 0 .41-.2.8-.52 1.04-.52.4-12.75 9.61-25.38 9.61-12.9 0-19.26-9.54-19.54-9.93a1.33 1.33 0 0 1 0-1.42c.28-.4 6.63-9.95 19.54-9.95 12.63 0 24.86 9.22 25.38 9.62zm-18.91 1.03c0-4.27-3.06-7.74-6.84-7.74-3.77 0-6.83 3.47-6.83 7.74s3.06 7.74 6.83 7.74c3.78 0 6.84-3.47 6.84-7.74zm-13.06 7.01a9.24 9.24 0 0 1-3.26-7 9.26 9.26 0 0 1 3.22-7 22.13 22.13 0 0 0-10.15 7 21.48 21.48 0 0 0 10.19 7zm28.88-7c-2.86-1.92-9.57-5.92-16.92-7.41a9.29 9.29 0 0 1 3.75 7.4c0 3.03-1.49 5.7-3.75 7.4 7.36-1.49 14.06-5.47 16.92-7.4zm-19.05 0c0 1.96-1.61 3.55-3.6 3.55-2 0-3.6-1.59-3.6-3.56s1.6-3.56 3.6-3.56c1.99 0 3.6 1.6 3.6 3.56z"/><clipPath id="im2tb"><use fill="#fff" xlink:href="#im2ta"/></clipPath></defs><g><g transform="translate(-641 -751)"><use fill="#00ccad" xlink:href="#im2ta"/><use fill="#fff" fill-opacity="0" stroke="#fff" stroke-miterlimit="50" stroke-width=".18" clip-path="url(&quot;#im2tb&quot;)" xlink:href="#im2ta"/></g></g></svg>