<svg xmlns="http://www.w3.org/2000/svg" xmlns:xlink="http://www.w3.org/1999/xlink" width="36" height="33" viewBox="0 0 36 33"><defs><path id="6w3ea" d="M328 781.78V784h-36v-2.54a5.4 5.4 0 0 1 2.82-4.76l5.35-2.92c.51-.27.83-.8.83-1.39v-1.98c-.4-.53-1.55-2.17-2.1-4.35a2.38 2.38 0 0 1-.9-1.86v-2.4c0-.58.22-1.14.6-1.57v-3.2a5.36 5.36 0 0 1 1.25-3.91c1.24-1.4 3.24-2.12 5.95-2.12s4.71.71 5.94 2.12c.43.48.7.99.9 1.47.88-.32 1.84-.5 2.88-.5 7.09.05 7.33 7.23 7.33 7.3.08 4.22 2.7 8.38 3.81 9.97a1.77 1.77 0 0 1-.74 2.66c-1.3.56-2.91.41-2.98.4h-3.92c.14.23.29.4.43.47l5.86 2.54a4.85 4.85 0 0 1 2.69 4.35zm-9.6-.2c0-1.61-.9-3.06-2.33-3.77l-5.73-2.87a2.8 2.8 0 0 1-.71-.51h-.03l-.13-.17a2.97 2.97 0 0 1-.3-.43l-.03-.05a2.52 2.52 0 0 1-.28-.8l-.02-.08c-.02-.15-.04-.3-.04-.45v-2.48l.15-.17c.15-.17.32-.4.5-.64.73-1.03 1.3-2.18 1.7-3.43l.1-.3.3-.09c.5-.16.85-.62.85-1.14v-2.4c0-.34-.14-.65-.4-.88l-.2-.18v-3.82l.02-.22v-.16-.03l-.01-.18v-.02l-.03-.21v-.1l-.03-.13-.02-.13-.03-.12a3.88 3.88 0 0 0-.87-1.72c-1-1.13-2.69-1.7-5.03-1.7-2.35 0-4.05.58-5.04 1.7a4.15 4.15 0 0 0-.96 3.02V760.74l-.2.17c-.26.24-.4.55-.4.89v2.4c0 .4.2.78.56 1l.2.14.06.24c.56 2.44 2.03 4.22 2.04 4.23l.14.17v2.41c0 1.02-.56 1.96-1.45 2.45l-5.35 2.92a4.21 4.21 0 0 0-2.2 3.7v1.34h25.2zm8.4.2c0-1.39-.77-2.64-2.01-3.27l-5.85-2.53a2.51 2.51 0 0 1-1.07-1.16 1.1 1.1 0 0 1 1-1.6H323c.07.01 1.43.13 2.44-.3a.58.58 0 0 0 .24-.87c-1.18-1.68-3.94-6.09-4.03-10.63 0-.25-.22-6.09-6.13-6.14-.93 0-1.8.17-2.57.47.1.64.06 1.13.05 1.28v3.2c.38.43.6 1 .6 1.57v2.4c0 .94-.55 1.78-1.4 2.17a13.7 13.7 0 0 1-2.2 4.05v2.03c0 .14.02.28.06.41l.08.21.07.16h1.33c.45 0 .83.27.98.7.09.25.08.51-.03.74l4.12 2.06c1.84.93 3 2.78 3 4.84v1.23h7.19z"/></defs><g><g transform="translate(-292 -751)"><use fill="#00ccad" xlink:href="#6w3ea"/><use fill="#fff" fill-opacity="0" stroke="#00ccad" stroke-miterlimit="50" stroke-width="1.1" xlink:href="#6w3ea"/></g></g></svg>