<svg xmlns="http://www.w3.org/2000/svg" xmlns:xlink="http://www.w3.org/1999/xlink" width="35" height="33" viewBox="0 0 35 33"><defs><path id="18c0a" d="M914.84 754.13c1.7 1.9 2.64 4.42 2.64 7.06 0 3.67-1.36 9.01-3.65 14.28a36.07 36.07 0 0 1-3.12 5.87c-1.23 1.78-2.27 2.65-3.2 2.65-.41 0-1.16-.17-1.58-1.34-.4-1.13-.76-2.44-1.14-3.82-.57-2.1-1.16-4.25-1.94-5.88-.78-1.64-1.61-2.44-2.54-2.44h-.14c-2.09 0-3.4 4.6-4.44 8.28-.4 1.4-.76 2.71-1.18 3.86-.42 1.18-1.18 1.35-1.6 1.35-.93 0-1.98-.85-3.2-2.6a34.84 34.84 0 0 1-3.12-5.82c-2.27-5.23-3.63-10.6-3.63-14.39 0-2.64.94-5.15 2.64-7.06 1.79-2 4.25-3.1 6.93-3.1 2.1 0 4.36 1.25 6.01 2.16.6.33 1.42.78 1.66.81a9.75 9.75 0 0 0 1.67-.81c1.65-.91 3.9-2.16 6-2.16 2.68 0 5.15 1.1 6.93 3.1zm-7.36 2.78c0 .05-.2.1-.2.1-.02.01-.97.26-2.4.26-1.39 0-2.74-.27-4.02-.81a15.92 15.92 0 0 1-2.74-1.75c-.32-.25-.65-.5-.89-.65a9.44 9.44 0 0 0-4.66-1.62c-5.11 0-8.16 4.45-8.16 8.75 0 3.55 1.34 8.84 3.51 13.83a34.02 34.02 0 0 0 2.98 5.57c1.38 1.98 1.93 2.02 2.05 2 .16-.02.2-.18.28-.42.4-1.1.76-2.4 1.15-3.76.6-2.15 1.24-4.37 2.06-6.1 1.04-2.15 2.26-3.2 3.73-3.2h.14c1.53 0 2.77 1.05 3.81 3.23.84 1.74 1.44 3.97 2.03 6.12.37 1.35.72 2.64 1.1 3.71.1.3.12.39.26.41.21.05.93-.42 2.04-2.04a35.2 35.2 0 0 0 2.99-5.63c2.18-5.02 3.53-10.28 3.53-13.72 0-4.3-3.05-8.75-8.16-8.75-1.73 0-3.8 1.14-5.32 1.98-.28.15-1.42.82-1.42.95 0 .14 1.05.62 1.94.85 1.97.52 4.14.63 4.16.63 0 0 .2 0 .21.06z"/></defs><g><g transform="translate(-883 -751)"><g><use fill="#00ccad" xlink:href="#18c0a"/><use fill="#fff" fill-opacity="0" stroke="#00ccad" stroke-miterlimit="50" xlink:href="#18c0a"/></g></g></g></svg>