<svg xmlns="http://www.w3.org/2000/svg" xmlns:xlink="http://www.w3.org/1999/xlink" width="16" height="22" viewBox="0 0 16 22"><defs><path id="a6kja" d="M494.37 29.54c-.11.31-.28.62-.48.97l-5.85 9.53a1.23 1.23 0 0 1-2.1 0l-5.84-9.47c-.2-.3-.33-.63-.46-.92a7.8 7.8 0 0 1 .86-7.25 7.77 7.77 0 0 1 6.46-3.4 7.85 7.85 0 0 1 7.41 10.54zm-3.4-2.96c0-2.19-1.8-4-4-4a4.03 4.03 0 0 0 0 8.04 4.05 4.05 0 0 0 4-4.04z"/></defs><g><g transform="translate(-479 -19)"><use fill="#dbd7e4" xlink:href="#a6kja"/></g></g></svg>