<svg xmlns="http://www.w3.org/2000/svg" xmlns:xlink="http://www.w3.org/1999/xlink" width="21" height="22" viewBox="0 0 21 22"><defs><path id="vssia" d="M802.31 19.02a.7.7 0 0 0-.43.03c-1.57.64-2.56 2.99-2.8 4.6-.72 5.26 3.23 9.8 6.86 12.8 3.23 2.65 9.41 7 13.07 2.8.47-.52 1.02-1.28.99-2.05-.09-1.28-1.22-2.2-2.1-2.9-.66-.51-2.05-1.95-2.93-1.92-.78.03-1.27.89-1.77 1.4l-.87.92c-.14.15-2-1.13-2.2-1.28a14.2 14.2 0 0 1-3.83-3.81c-.16-.22-1.35-2.08-1.23-2.23 0 0 1.02-1.16 1.3-1.62.62-.97 1.08-1.74.38-2.9a6.74 6.74 0 0 0-.92-1.12c-.61-.61-1.22-1.26-1.92-1.77-.38-.3-1.02-.86-1.6-.95z"/></defs><g><g transform="translate(-799 -19)"><use fill="#dbd7e4" xlink:href="#vssia"/></g></g></svg>