<svg xmlns="http://www.w3.org/2000/svg" xmlns:xlink="http://www.w3.org/1999/xlink" width="22" height="23" viewBox="0 0 22 23"><defs><path id="j97ba" d="M1209.5 113.57c0 1.71-.51 3.31-1.38 4.65l6.4 6.54a1.7 1.7 0 0 1 0 2.38c-.65.66-1.7.66-2.34 0l-6.39-6.53a8.06 8.06 0 0 1-4.54 1.4 8.37 8.37 0 0 1-8.25-8.44 8.37 8.37 0 0 1 8.25-8.44c4.54 0 8.25 3.8 8.25 8.44zm-13.2 0c0 2.81 2.2 5.06 4.95 5.06a4.98 4.98 0 0 0 4.95-5.06c0-2.82-2.2-5.06-4.95-5.06a4.98 4.98 0 0 0-4.95 5.06z"/></defs><g><g opacity=".54" transform="translate(-1193 -105)"><use fill="#fff" xlink:href="#j97ba"/></g></g></svg>